<?xml version="1.0" standalone="no"?><!DOCTYPE svg PUBLIC "-//W3C//DTD SVG 1.1//EN" "http://www.w3.org/Graphics/SVG/1.1/DTD/svg11.dtd"><svg t="1775548355215" class="icon" viewBox="0 0 1024 1024" version="1.1" xmlns="http://www.w3.org/2000/svg" p-id="2934" width="32" height="32" xmlns:xlink="http://www.w3.org/1999/xlink"><path d="M626.5344 56.7808c19.39456 41.16992 31.72864 84.1984 36.99712 129.0752a358.912 358.912 0 0 1 55.14752 31.84128c41.50272-17.87392 84.93056-28.70784 130.28864-32.49664a30.70976 30.70976 0 0 1 25.70752 10.4192 481.26464 481.26464 0 0 1 92.65664 160.4864 30.73536 30.73536 0 0 1-3.82976 27.47392c-25.96352 37.38112-57.05728 69.57568-93.2864 96.57856 1.88416 21.18656 1.88416 42.496 0 63.68256 36.22912 27.00288 67.32288 59.19744 93.2864 96.57856a30.73536 30.73536 0 0 1 3.82976 27.47392 481.26464 481.26464 0 0 1-92.65664 160.4864 30.70976 30.70976 0 0 1-25.70752 10.4192c-45.35808-3.7888-88.78592-14.62272-130.28352-32.49664a359.3984 359.3984 0 0 1-55.14752 31.84128c-5.2736 44.8768-17.60768 87.90528-37.00224 129.0752a30.73024 30.73024 0 0 1-21.87776 17.05984 481.408 481.408 0 0 1-185.31328 0 30.73024 30.73024 0 0 1-21.87776-17.05984c-19.39456-41.16992-31.72864-84.1984-36.99712-129.0752a358.912 358.912 0 0 1-55.14752-31.84128c-41.50272 17.87392-84.93056 28.70784-130.28864 32.49664a30.70976 30.70976 0 0 1-25.70752-10.4192 481.26464 481.26464 0 0 1-92.65664-160.4864 30.73536 30.73536 0 0 1 3.82976-27.47392c25.96352-37.38112 57.05728-69.57568 93.2864-96.57856a359.43936 359.43936 0 0 1 0-63.68256c-36.22912-27.00288-67.32288-59.19744-93.2864-96.57856a30.73536 30.73536 0 0 1-3.82976-27.47392 481.26464 481.26464 0 0 1 92.65664-160.4864 30.70976 30.70976 0 0 1 25.70752-10.4192c45.35808 3.7888 88.78592 14.62272 130.28352 32.49664A359.3984 359.3984 0 0 1 360.46336 185.856c5.2736-44.8768 17.60768-87.90528 37.00224-129.0752a30.73024 30.73024 0 0 1 21.87776-17.05984 481.408 481.408 0 0 1 185.31328 0 30.73024 30.73024 0 0 1 21.87776 17.05984z m-49.21344 40.49408a419.6864 419.6864 0 0 0-130.64704 0 353.76128 353.76128 0 0 0-26.71616 111.79008 30.72 30.72 0 0 1-19.17952 26.2656 298.20928 298.20928 0 0 0-72.77056 42.01472 30.72 30.72 0 0 1-32.3328 3.47648A353.83808 353.83808 0 0 0 185.4976 248.064a419.712 419.712 0 0 0-65.32096 113.14688 353.67424 353.67424 0 0 0 83.456 79.03232 30.72 30.72 0 0 1 13.15328 29.74208 298.06592 298.06592 0 0 0 0 84.02944 30.72 30.72 0 0 1-13.15328 29.74208 353.59232 353.59232 0 0 0-83.456 79.03744A419.7632 419.7632 0 0 0 185.4976 775.936a353.83808 353.83808 0 0 0 110.17728-32.75776 30.72 30.72 0 0 1 32.3328 3.47648 298.20928 298.20928 0 0 0 72.77056 42.01472 30.72 30.72 0 0 1 19.17952 26.2656 353.59744 353.59744 0 0 0 26.72128 111.79008 419.6864 419.6864 0 0 0 130.64704 0 353.76128 353.76128 0 0 0 26.71616-111.79008 30.72 30.72 0 0 1 19.17952-26.2656 298.20928 298.20928 0 0 0 72.77056-42.01472 30.72 30.72 0 0 1 32.3328-3.47648 353.83808 353.83808 0 0 0 110.17728 32.75776 419.712 419.712 0 0 0 65.32096-113.14688 353.67424 353.67424 0 0 0-83.456-79.03232 30.72 30.72 0 0 1-13.15328-29.74208 298.06592 298.06592 0 0 0 0-84.02944 30.72 30.72 0 0 1 13.15328-29.74208 353.59232 353.59232 0 0 0 83.456-79.03744A419.7632 419.7632 0 0 0 838.5024 248.064a353.83808 353.83808 0 0 0-110.17728 32.75776 30.72 30.72 0 0 1-32.3328-3.47648 298.20928 298.20928 0 0 0-72.77056-42.01472 30.72 30.72 0 0 1-19.17952-26.2656 353.59744 353.59744 0 0 0-26.72128-111.79008zM512 391.168c66.688 0 120.832 54.144 120.832 120.832 0 66.688-54.144 120.832-120.832 120.832-66.688 0-120.832-54.144-120.832-120.832 0-66.688 54.144-120.832 120.832-120.832z m0 61.44c-32.77824 0-59.392 26.61376-59.392 59.392 0 32.77824 26.61376 59.392 59.392 59.392 32.77824 0 59.392-26.61376 59.392-59.392 0-32.77824-26.61376-59.392-59.392-59.392z" p-id="2935" fill="#333333"></path></svg>